<svg width="121" height="83" viewBox="0 0 121 83" fill="none" xmlns="http://www.w3.org/2000/svg">
<path d="M30.5178 82.3033C24.6844 82.3033 19.4891 81.3007 14.9318 79.2955C10.4006 77.2643 6.81986 74.4778 4.18965 70.9362C1.58548 67.3684 0.244339 63.2539 0.166214 58.5924H17.1975C17.3016 60.5455 17.9397 62.2643 19.1115 63.7487C20.3094 65.207 21.898 66.3398 23.8772 67.1471C25.8563 67.9544 28.0829 68.358 30.5568 68.358C33.135 68.358 35.4136 67.9023 37.3928 66.9908C39.3719 66.0794 40.9214 64.8164 42.0412 63.2018C43.161 61.5872 43.7209 59.7252 43.7209 57.6158C43.7209 55.4804 43.1219 53.5924 41.924 51.9518C40.7522 50.2851 39.0594 48.983 36.8459 48.0455C34.6584 47.108 32.0542 46.6393 29.0334 46.6393H21.5725V34.2174H29.0334C31.5855 34.2174 33.8381 33.7747 35.7912 32.8893C37.7704 32.0039 39.3068 30.7799 40.4006 29.2174C41.4943 27.6289 42.0412 25.7799 42.0412 23.6705C42.0412 21.6653 41.5594 19.9075 40.5959 18.3971C39.6584 16.8606 38.3303 15.6627 36.6115 14.8033C34.9188 13.944 32.9397 13.5143 30.674 13.5143C28.3824 13.5143 26.286 13.9309 24.385 14.7643C22.4839 15.5716 20.9605 16.7304 19.8147 18.2408C18.6688 19.7513 18.0568 21.5221 17.9787 23.5533H1.76778C1.8459 18.944 3.16101 14.8815 5.71309 11.3658C8.26517 7.85022 11.7027 5.10282 16.0256 3.12365C20.3745 1.11845 25.2834 0.115842 30.7522 0.115842C36.273 0.115842 41.1037 1.11845 45.2443 3.12365C49.385 5.12886 52.6011 7.8372 54.8928 11.2487C57.2105 14.6341 58.3563 18.4362 58.3303 22.6549C58.3563 27.1341 56.9631 30.8711 54.1506 33.8658C51.3641 36.8606 47.7313 38.7617 43.2522 39.569V40.194C49.1376 40.9492 53.6167 42.9934 56.6897 46.3268C59.7886 49.6341 61.3251 53.7747 61.299 58.7487C61.3251 63.3059 60.01 67.3554 57.3537 70.8971C54.7235 74.4388 51.0907 77.2252 46.4553 79.2565C41.8199 81.2877 36.5074 82.3033 30.5178 82.3033ZM80.9197 21.2096L91.9354 42.1862L103.224 21.2096H120.295L102.912 51.2096L120.763 81.2096H103.771L91.9354 60.4674L80.2947 81.2096H63.1072L80.9197 51.2096L63.7322 21.2096H80.9197Z" fill="url(#paint0_linear_1_656)" style=""/>
<defs>
<linearGradient id="paint0_linear_1_656" x1="5.5" y1="81.2096" x2="124" y2="20.7096" gradientUnits="userSpaceOnUse">
<stop stop-color="#FF6739" style="stop-color:#FF6739;stop-color:color(display-p3 1.0000 0.4055 0.2235);stop-opacity:1;"/>
<stop offset="1" stop-color="#FFDE23" style="stop-color:#FFDE23;stop-color:color(display-p3 1.0000 0.8706 0.1373);stop-opacity:1;"/>
</linearGradient>
</defs>
</svg>
