<svg width="167" height="83" viewBox="0 0 167 83" fill="none" xmlns="http://www.w3.org/2000/svg">
<path d="M31.3348 82.3033C25.3191 82.3033 19.9676 81.3268 15.2801 79.3737C10.6186 77.3945 6.95976 74.6992 4.30351 71.2877C1.64726 67.8763 0.319138 64.0091 0.319138 59.6862C0.319138 56.3528 1.07435 53.2929 2.58476 50.5065C4.12122 47.694 6.20455 45.3632 8.83476 43.5143C11.465 41.6393 14.4077 40.4414 17.6629 39.9205V39.3737C13.3921 38.5143 9.92851 36.444 7.27226 33.1627C4.61601 29.8554 3.28789 26.0143 3.28789 21.6393C3.28789 17.4987 4.49883 13.8138 6.9207 10.5846C9.34258 7.32938 12.6629 4.7773 16.8816 2.92834C21.1264 1.05334 25.9441 0.115842 31.3348 0.115842C36.7254 0.115842 41.5301 1.05334 45.7488 2.92834C49.9936 4.80334 53.327 7.36845 55.7488 10.6237C58.1707 13.8528 59.3947 17.5247 59.4207 21.6393C59.3947 26.0403 58.0405 29.8815 55.3582 33.1627C52.6759 36.444 49.2384 38.5143 45.0457 39.3737V39.9205C48.2488 40.4414 51.1525 41.6393 53.7566 43.5143C56.3868 45.3632 58.4702 47.694 60.0066 50.5065C61.5691 53.2929 62.3634 56.3528 62.3895 59.6862C62.3634 64.0091 61.0223 67.8763 58.366 71.2877C55.7098 74.6992 52.0379 77.3945 47.3504 79.3737C42.6889 81.3268 37.3504 82.3033 31.3348 82.3033ZM31.3348 69.8815C34.0171 69.8815 36.3608 69.3997 38.366 68.4362C40.3712 67.4466 41.9337 66.0924 43.0535 64.3737C44.1993 62.6289 44.7723 60.6237 44.7723 58.358C44.7723 56.0403 44.1863 53.9961 43.0145 52.2252C41.8426 50.4283 40.254 49.0221 38.2488 48.0065C36.2436 46.9648 33.9389 46.444 31.3348 46.444C28.7566 46.444 26.452 46.9648 24.4207 48.0065C22.3895 49.0221 20.7879 50.4283 19.616 52.2252C18.4702 53.9961 17.8973 56.0403 17.8973 58.358C17.8973 60.6237 18.4572 62.6289 19.577 64.3737C20.6967 66.0924 22.2723 67.4466 24.3035 68.4362C26.3348 69.3997 28.6785 69.8815 31.3348 69.8815ZM31.3348 34.1393C33.5743 34.1393 35.5665 33.6836 37.3113 32.7721C39.0561 31.8606 40.4233 30.5976 41.4129 28.983C42.4025 27.3684 42.8973 25.5065 42.8973 23.3971C42.8973 21.3138 42.4025 19.4908 41.4129 17.9283C40.4233 16.3398 39.0691 15.1028 37.3504 14.2174C35.6316 13.3059 33.6264 12.8502 31.3348 12.8502C29.0691 12.8502 27.0639 13.3059 25.3191 14.2174C23.5743 15.1028 22.2072 16.3398 21.2176 17.9283C20.254 19.4908 19.7723 21.3138 19.7723 23.3971C19.7723 25.5065 20.2671 27.3684 21.2566 28.983C22.2462 30.5976 23.6134 31.8606 25.3582 32.7721C27.103 33.6836 29.0952 34.1393 31.3348 34.1393ZM67.6156 81.2096V69.0221L96.0922 42.6549C98.5141 40.3112 100.545 38.2018 102.186 36.3268C103.853 34.4518 105.116 32.6158 105.975 30.819C106.834 28.9961 107.264 27.0299 107.264 24.9205C107.264 22.5768 106.73 20.5586 105.663 18.8658C104.595 17.1471 103.136 15.832 101.288 14.9205C99.4385 13.983 97.3422 13.5143 94.9984 13.5143C92.5505 13.5143 90.4151 14.0091 88.5922 14.9987C86.7693 15.9882 85.363 17.4075 84.3734 19.2565C83.3839 21.1054 82.8891 23.3059 82.8891 25.858H66.8344C66.8344 20.6237 68.0193 16.0794 70.3891 12.2252C72.7589 8.37105 76.0792 5.38928 80.35 3.2799C84.6208 1.17053 89.5427 0.115842 95.1156 0.115842C100.845 0.115842 105.832 1.13147 110.077 3.16272C114.347 5.16793 117.668 7.95438 120.037 11.5221C122.407 15.0898 123.592 19.1783 123.592 23.7877C123.592 26.8086 122.993 29.7903 121.795 32.733C120.623 35.6757 118.527 38.944 115.506 42.5377C112.485 46.1054 108.228 50.3893 102.733 55.3893L91.0531 66.8346V67.3815H124.647V81.2096H67.6156ZM150.699 74.1187V72.1244C150.699 70.6594 151.007 69.3114 151.623 68.0803C152.25 66.8493 153.161 65.8583 154.356 65.1073C155.55 64.3564 156.996 63.9809 158.695 63.9809C160.443 63.9809 161.908 64.3564 163.09 65.1073C164.272 65.846 165.164 66.8308 165.768 68.0619C166.383 69.2929 166.691 70.6471 166.691 72.1244V74.1187C166.691 75.5836 166.383 76.9317 165.768 78.1627C165.152 79.3938 164.247 80.3848 163.053 81.1357C161.871 81.8867 160.419 82.2622 158.695 82.2622C156.972 82.2622 155.513 81.8867 154.319 81.1357C153.125 80.3848 152.22 79.3938 151.604 78.1627C151.001 76.9317 150.699 75.5836 150.699 74.1187ZM155.519 72.1244V74.1187C155.519 75.0912 155.753 75.9837 156.221 76.7962C156.688 77.6087 157.513 78.015 158.695 78.015C159.889 78.015 160.708 77.6149 161.151 76.8147C161.607 76.0022 161.834 75.1035 161.834 74.1187V72.1244C161.834 71.1395 161.619 70.2408 161.188 69.4283C160.757 68.6035 159.926 68.1911 158.695 68.1911C157.538 68.1911 156.719 68.6035 156.239 69.4283C155.759 70.2408 155.519 71.1395 155.519 72.1244ZM131.476 52.4766V50.4823C131.476 49.005 131.79 47.6509 132.418 46.4198C133.046 45.1888 133.957 44.2039 135.151 43.4653C136.345 42.7143 137.792 42.3389 139.491 42.3389C141.226 42.3389 142.685 42.7143 143.867 43.4653C145.061 44.2039 145.96 45.1888 146.563 46.4198C147.166 47.6509 147.468 49.005 147.468 50.4823V52.4766C147.468 53.9539 147.16 55.3081 146.544 56.5391C145.941 57.7579 145.043 58.7366 143.848 59.4752C142.654 60.2139 141.202 60.5832 139.491 60.5832C137.755 60.5832 136.29 60.2139 135.096 59.4752C133.914 58.7366 133.015 57.7517 132.4 56.5207C131.784 55.2896 131.476 53.9416 131.476 52.4766ZM136.333 50.4823V52.4766C136.333 53.4615 136.561 54.3602 137.016 55.1727C137.484 55.9729 138.309 56.3729 139.491 56.3729C140.672 56.3729 141.485 55.9729 141.928 55.1727C142.384 54.3602 142.611 53.4615 142.611 52.4766V50.4823C142.611 49.4975 142.396 48.5988 141.965 47.7863C141.534 46.9615 140.709 46.5491 139.491 46.5491C138.321 46.5491 137.502 46.9615 137.035 47.7863C136.567 48.6111 136.333 49.5098 136.333 50.4823ZM133.581 81.2096L159.581 43.3914H164.198L138.198 81.2096H133.581Z" fill="url(#paint0_linear_1_653)" style=""/>
<defs>
<linearGradient id="paint0_linear_1_653" x1="13" y1="8.7096" x2="163" y2="81.2096" gradientUnits="userSpaceOnUse">
<stop stop-color="#FFDE23" style="stop-color:#FFDE23;stop-color:color(display-p3 1.0000 0.8706 0.1376);stop-opacity:1;"/>
<stop offset="1" stop-color="#FF6739" style="stop-color:#FF6739;stop-color:color(display-p3 1.0000 0.4039 0.2224);stop-opacity:1;"/>
</linearGradient>
</defs>
</svg>
