<svg width="125" height="50" viewBox="0 0 125 50" fill="none" xmlns="http://www.w3.org/2000/svg">
<path d="M24.8855 0C32.1627 0 39.0416 3.18505 43.7796 8.73616C46.1528 11.5309 45.8375 15.7259 43.0577 18.122C40.2779 20.5106 36.0958 20.1937 33.7226 17.3989C33.6895 17.3622 33.648 17.3255 33.6231 17.2888L33.6289 17.2988L33.4209 17.0684C31.2176 14.6775 28.1411 13.3148 24.8855 13.3148C24.2353 13.3148 23.5976 13.3686 22.9765 13.472L3.41956 12.371L3.50303 12.2278C4.90244 9.87196 6.67265 7.7702 8.73788 5.99396L8.75418 5.98681C13.093 2.25314 18.7323 0 24.8855 0Z" fill="url(#paint0_linear_2_57)" style=""/>
<path d="M5.74374 9.04541L13.8042 21.4424C13.4454 22.567 13.2516 23.7649 13.2516 25.0073C13.2516 29.6383 15.9452 33.6469 19.8408 35.5401L20.0464 35.6374L20.0807 35.6458L20.3813 35.7791C21.7657 36.3689 23.2819 36.6925 24.8769 36.6925C28.3722 36.6925 31.6252 35.151 33.8469 32.4517L34.046 32.2031C36.2947 29.3133 40.4602 28.8045 43.3396 31.068C46.2106 33.324 46.7168 37.5115 44.4681 40.4013C39.7134 46.5054 32.5773 49.9998 24.8769 49.9998C11.1606 49.9998 0 38.7867 0 24.9998C0 20.7022 1.08702 16.6615 2.99552 13.1228L3.24474 12.6723C3.97288 11.3873 4.80982 10.1746 5.74374 9.04541Z" fill="url(#paint1_linear_2_57)" style=""/>
<path opacity="0.8" d="M5.74374 9.04541L13.8042 21.4424C13.4454 22.567 13.2516 23.7649 13.2516 25.0073C13.2516 29.6383 15.9452 33.6469 19.8408 35.5401L20.0464 35.6374L20.0807 35.6458L20.3813 35.7791C21.7657 36.3689 23.2819 36.6925 24.8769 36.6925C28.3722 36.6925 31.6252 35.151 33.8469 32.4517L34.046 32.2031C36.2947 29.3133 40.4602 28.8045 43.3396 31.068C46.2106 33.324 46.7168 37.5115 44.4681 40.4013C39.7134 46.5054 32.5773 49.9998 24.8769 49.9998C11.1606 49.9998 0 38.7867 0 24.9998C0 20.7022 1.08702 16.6615 2.99552 13.1228L3.24474 12.6723C3.97288 11.3873 4.80982 10.1746 5.74374 9.04541Z" fill="url(#paint2_radial_2_57)" style=""/>
<path d="M5.74374 9.04541L13.8042 21.4424C13.4454 22.567 13.2516 23.7649 13.2516 25.0073C13.2516 29.6383 15.9452 33.6469 19.8408 35.5401L20.0464 35.6374L20.0807 35.6458L20.3813 35.7791C21.7657 36.3689 23.2819 36.6925 24.8769 36.6925C28.3722 36.6925 31.6252 35.151 33.8469 32.4517L34.046 32.2031C36.2947 29.3133 40.4602 28.8045 43.3396 31.068C46.2106 33.324 46.7168 37.5115 44.4681 40.4013C39.7134 46.5054 32.5773 49.9998 24.8769 49.9998C11.1606 49.9998 0 38.7867 0 24.9998C0 20.7022 1.08702 16.6615 2.99552 13.1228L3.24474 12.6723C3.97288 11.3873 4.80982 10.1746 5.74374 9.04541Z" fill="url(#paint3_radial_2_57)" style=""/>
<path d="M5.74374 9.04541L13.8042 21.4424C13.4454 22.567 13.2516 23.7649 13.2516 25.0073C13.2516 29.6383 15.9452 33.6469 19.8408 35.5401L20.0464 35.6374L20.0807 35.6458L20.3813 35.7791C21.7657 36.3689 23.2819 36.6925 24.8769 36.6925C28.3722 36.6925 31.6252 35.151 33.8469 32.4517L34.046 32.2031C36.2947 29.3133 40.4602 28.8045 43.3396 31.068C46.2106 33.324 46.7168 37.5115 44.4681 40.4013C39.7134 46.5054 32.5773 49.9998 24.8769 49.9998C11.1606 49.9998 0 38.7867 0 24.9998C0 20.7022 1.08702 16.6615 2.99552 13.1228L3.24474 12.6723C3.97288 11.3873 4.80982 10.1746 5.74374 9.04541Z" fill="url(#paint4_radial_2_57)" fill-opacity="0.8" style=""/>
<path d="M5.74374 9.04541L13.8042 21.4424C13.4454 22.567 13.2516 23.7649 13.2516 25.0073C13.2516 29.6383 15.9452 33.6469 19.8408 35.5401L20.0464 35.6374L20.0807 35.6458L20.3813 35.7791C21.7657 36.3689 23.2819 36.6925 24.8769 36.6925C28.3722 36.6925 31.6252 35.151 33.8469 32.4517L34.046 32.2031C36.2947 29.3133 40.4602 28.8045 43.3396 31.068C46.2106 33.324 46.7168 37.5115 44.4681 40.4013C39.7134 46.5054 32.5773 49.9998 24.8769 49.9998C11.1606 49.9998 0 38.7867 0 24.9998C0 20.7022 1.08702 16.6615 2.99552 13.1228L3.24474 12.6723C3.97288 11.3873 4.80982 10.1746 5.74374 9.04541Z" fill="url(#paint5_radial_2_57)" style=""/>
<path d="M10.9949 30.8979C13.8245 33.2281 16.9362 34.8052 19.9815 35.6308C20.0147 35.6383 20.0396 35.6458 20.0811 35.6534C16.0566 33.8102 13.2519 29.7328 13.2519 25.0073C13.2519 18.5638 18.463 13.3146 24.8855 13.3146C28.2461 13.3146 31.4159 14.7666 33.6314 17.3028C32.2374 14.8042 30.2708 12.4081 27.7566 10.3439C21.5498 5.22734 13.9656 3.69361 8.73793 5.99379C6.41453 7.99205 4.46454 10.4023 2.99583 13.1228C1.84243 18.704 4.83795 25.818 10.9949 30.8904V30.8979Z" fill="url(#paint6_linear_2_57)" style=""/>
<path d="M68.7315 22.6184C67.7885 22.6184 66.9378 22.3876 66.2035 21.9341C65.4676 21.4805 64.8805 20.8189 64.4567 19.9704C64.033 19.1202 63.8179 18.0895 63.8179 16.9077C63.8179 15.7259 64.0346 14.692 64.46 13.8419C64.8853 12.9949 65.4741 12.3349 66.21 11.8814C66.9459 11.4279 67.795 11.197 68.7331 11.197C69.3105 11.197 69.8588 11.2816 70.3585 11.449C70.8583 11.6164 71.3144 11.8635 71.7139 12.1854C72.1134 12.5056 72.4482 12.9023 72.7086 13.3639C72.9576 13.8045 73.1323 14.3117 73.2278 14.8725H71.6799C71.612 14.5214 71.4891 14.2076 71.3176 13.9378C71.1365 13.6533 70.9133 13.4078 70.6513 13.2111C70.3893 13.0128 70.0933 12.8616 69.7714 12.7608C69.4496 12.6601 69.1051 12.6097 68.746 12.6097C68.0974 12.6097 67.5071 12.7787 66.996 13.1103C66.4833 13.442 66.0741 13.9345 65.7797 14.575C65.487 15.2106 65.3382 15.9974 65.3382 16.9126C65.3382 17.8278 65.487 18.6244 65.7797 19.2616C66.0741 19.9021 66.4849 20.3914 66.9992 20.7197C67.5136 21.0481 68.0991 21.2139 68.7412 21.2139C69.097 21.2139 69.4399 21.1635 69.7601 21.0644C70.082 20.9652 70.3779 20.8173 70.6383 20.6222C70.9004 20.4271 71.1252 20.1849 71.3079 19.9037C71.481 19.6355 71.6055 19.3266 71.6767 18.982L73.2245 18.9869C73.1323 19.4989 72.9641 19.9769 72.7247 20.4076C72.4724 20.8612 72.1441 21.2578 71.7511 21.5862C71.3565 21.9146 70.9004 22.173 70.3957 22.3518C69.8895 22.5323 69.3299 22.6233 68.7298 22.6233L68.7315 22.6184Z" fill="white" style="fill:white;fill-opacity:1;"/>
<path d="M75.2431 22.4639V14.1637H76.668V15.5048H76.875L76.8912 15.456C77.0368 15.0187 77.2988 14.6692 77.6675 14.4173C78.0379 14.1653 78.4649 14.0369 78.9356 14.0369C79.0358 14.0369 79.1539 14.0401 79.2914 14.0482C79.3949 14.0531 79.4822 14.0596 79.5534 14.0678V15.4885C79.4871 15.4755 79.3981 15.4609 79.2865 15.4446C79.1167 15.4202 78.9469 15.4089 78.7787 15.4089C78.3857 15.4089 78.0315 15.4934 77.7258 15.6625C77.4185 15.8315 77.171 16.0672 76.9931 16.3631C76.8136 16.6606 76.723 17.0036 76.723 17.3807V22.4656H75.2447L75.2431 22.4639Z" fill="white" style="fill:white;fill-opacity:1;"/>
<path d="M84.6884 22.6346C83.8862 22.6346 83.1875 22.4574 82.6117 22.1095C82.0359 21.7616 81.5863 21.2626 81.2742 20.627C80.9604 19.9897 80.8019 19.229 80.8019 18.369C80.8019 17.5091 80.9604 16.7597 81.2742 16.1143C81.5863 15.469 82.0295 14.9601 82.5907 14.5993C83.1519 14.2384 83.8199 14.0547 84.5752 14.0547C85.0345 14.0547 85.4858 14.1327 85.916 14.2871C86.3446 14.44 86.7344 14.6854 87.0757 15.0138C87.4169 15.3422 87.6887 15.7746 87.886 16.298C88.0833 16.8247 88.1852 17.4733 88.1852 18.2276V18.7396H82.2753V18.8112C82.2899 19.333 82.3918 19.7898 82.5778 20.1653C82.7799 20.5717 83.0662 20.8854 83.4301 21.0984C83.7924 21.3113 84.221 21.4186 84.7046 21.4186C85.0184 21.4186 85.3079 21.3715 85.5667 21.2805C85.8271 21.1878 86.0567 21.0464 86.2476 20.861C86.4255 20.6871 86.5646 20.4742 86.6649 20.2254L88.0639 20.4823C87.941 20.8968 87.7323 21.2658 87.4428 21.5796C87.1355 21.9128 86.7457 22.1745 86.2832 22.3582C85.819 22.5435 85.282 22.6362 84.6884 22.6362V22.6346ZM84.5849 15.2706C84.1191 15.2706 83.7051 15.3877 83.3573 15.6201C83.0112 15.851 82.7411 16.1566 82.5551 16.5256C82.3918 16.8491 82.298 17.2018 82.2785 17.5725L82.2753 17.6472H86.7393V17.5773C86.7393 17.1352 86.6487 16.7369 86.4708 16.3939C86.2929 16.0493 86.0389 15.7729 85.7171 15.573C85.3952 15.373 85.0135 15.2706 84.5849 15.2706V15.2706Z" fill="white" style="fill:white;fill-opacity:1;"/>
<path d="M92.7363 22.6509C92.222 22.6509 91.7514 22.5517 91.3373 22.3583C90.9249 22.1649 90.5949 21.8804 90.3572 21.513C90.1194 21.1456 89.9981 20.6872 89.9981 20.1507C89.9981 19.6891 90.0855 19.3054 90.2585 19.0096C90.4316 18.7137 90.6693 18.4764 90.9637 18.3041C91.2629 18.1285 91.6026 17.9952 91.9729 17.9058C92.3466 17.8148 92.7347 17.7449 93.1229 17.6977C93.6211 17.6392 94.0254 17.5904 94.3359 17.5514C94.6594 17.5108 94.8891 17.4458 95.0411 17.3515C95.2028 17.2507 95.2853 17.0865 95.2853 16.8638V16.8248C95.2853 16.3274 95.1446 15.9356 94.8664 15.6592C94.5882 15.3829 94.1742 15.2431 93.634 15.2431C93.0938 15.2431 92.6296 15.3715 92.3061 15.6235C92.0053 15.8592 91.7886 16.1225 91.6608 16.4086L90.2747 16.0884C90.4494 15.6235 90.7001 15.2382 91.0219 14.9472C91.3616 14.6384 91.7578 14.4108 92.1994 14.2693C92.6458 14.1279 93.1213 14.0564 93.613 14.0564C93.9381 14.0564 94.289 14.0954 94.6562 14.1734C95.0201 14.2498 95.3646 14.3929 95.6832 14.5961C95.9986 14.7977 96.2606 15.0886 96.4628 15.4642C96.6649 15.838 96.7685 16.3322 96.7685 16.9337V22.4688H95.3274V21.3147H95.1495L95.1301 21.3537C95.0298 21.5585 94.8761 21.7617 94.6723 21.9617C94.4702 22.16 94.2065 22.3258 93.8879 22.4575C93.5693 22.5891 93.1811 22.6558 92.7347 22.6558L92.7363 22.6509ZM95.1705 18.3528C95.1365 18.387 95.0573 18.4406 94.8664 18.4975C94.7047 18.5463 94.5203 18.5886 94.3149 18.6227C94.1063 18.6568 93.9025 18.6877 93.7052 18.7153L93.207 18.7836C92.89 18.8243 92.5956 18.8942 92.3352 18.9901C92.0668 19.0892 91.85 19.2339 91.6899 19.4192C91.5265 19.6094 91.4425 19.863 91.4425 20.1719C91.4425 20.601 91.6026 20.9294 91.9163 21.1505C92.222 21.3651 92.6167 21.474 93.0873 21.474C93.558 21.474 93.9429 21.3797 94.2712 21.196C94.5996 21.0107 94.8551 20.7652 95.0282 20.4629C95.2012 20.1621 95.2886 19.8354 95.2886 19.4908V18.2309L95.1689 18.3528H95.1705Z" fill="white" style="fill:white;fill-opacity:1;"/>
<path d="M102.148 22.5746C101.755 22.5746 101.381 22.4982 101.04 22.3486C100.686 22.1942 100.396 21.9503 100.176 21.6269C99.9581 21.3034 99.8481 20.8888 99.8481 20.3963V15.3407H98.6302V14.1621H99.8481V12.1399H101.326V14.1621H103.031V15.3407H101.326V20.0549C101.326 20.3898 101.375 20.6352 101.477 20.8076C101.579 20.9799 101.713 21.1002 101.878 21.1619C102.035 21.2221 102.208 21.2513 102.392 21.2513C102.526 21.2513 102.645 21.2416 102.746 21.2221C102.81 21.2107 102.863 21.1993 102.907 21.1912L103.172 22.4218C103.086 22.451 102.975 22.4803 102.837 22.5112C102.669 22.5486 102.455 22.5697 102.201 22.573H102.148V22.5746Z" fill="white" style="fill:white;fill-opacity:1;"/>
<path d="M105.491 22.464V14.1637H106.97V22.464H105.491ZM106.238 12.7202C105.973 12.7202 105.753 12.6324 105.564 12.4519C105.376 12.2715 105.284 12.0634 105.284 11.8131C105.284 11.5627 105.376 11.3482 105.564 11.1693C105.752 10.9889 105.973 10.9011 106.238 10.9011C106.504 10.9011 106.724 10.9889 106.913 11.1693C107.101 11.3498 107.191 11.5579 107.191 11.8082C107.191 12.0585 107.101 12.2731 106.913 12.4519C106.725 12.6324 106.504 12.7202 106.238 12.7202Z" fill="white" style="fill:white;fill-opacity:1;"/>
<path d="M112.04 22.4641L109.07 14.1638H110.657L112.763 20.6597H112.952L115.051 14.1638H116.638L113.673 22.4641H112.04Z" fill="white" style="fill:white;fill-opacity:1;"/>
<path d="M121.503 22.6346C120.701 22.6346 120.002 22.4574 119.427 22.1095C118.851 21.7616 118.401 21.2626 118.089 20.627C117.775 19.9897 117.617 19.229 117.617 18.369C117.617 17.5091 117.775 16.7597 118.089 16.1143C118.401 15.469 118.844 14.9601 119.405 14.5993C119.967 14.2384 120.635 14.0547 121.39 14.0547C121.849 14.0547 122.301 14.1327 122.731 14.2871C123.159 14.44 123.549 14.6854 123.89 15.0138C124.232 15.3422 124.503 15.7746 124.701 16.298C124.898 16.8247 125 17.4733 125 18.2276V18.7396H119.09V18.8112C119.105 19.333 119.207 19.7898 119.393 20.1653C119.595 20.5717 119.881 20.8854 120.245 21.0984C120.607 21.3113 121.036 21.4186 121.519 21.4186C121.833 21.4186 122.123 21.3715 122.381 21.2805C122.642 21.1878 122.872 21.0464 123.062 20.861C123.24 20.6871 123.379 20.4742 123.48 20.2254L124.879 20.4823C124.756 20.8968 124.547 21.2658 124.258 21.5796C123.95 21.9128 123.561 22.1745 123.098 22.3582C122.634 22.5435 122.097 22.6362 121.503 22.6362V22.6346ZM121.4 15.2706C120.934 15.2706 120.52 15.3877 120.172 15.6201C119.826 15.851 119.556 16.1566 119.37 16.5256C119.207 16.8491 119.113 17.2018 119.093 17.5725L119.09 17.6472H123.554V17.5773C123.554 17.1352 123.463 16.7369 123.286 16.3939C123.108 16.0493 122.854 15.7729 122.532 15.573C122.21 15.373 121.828 15.2706 121.4 15.2706Z" fill="white" style="fill:white;fill-opacity:1;"/>
<path d="M64.4016 39.0645V27.9487H71.1348V29.2703H65.9333V32.8401H70.6431V34.1569H65.9333V39.0645H64.4016Z" fill="white" style="fill:white;fill-opacity:1;"/>
<path d="M76.0971 39.2352C75.3353 39.2352 74.6608 39.0563 74.0931 38.702C73.5254 38.3476 73.079 37.8453 72.7653 37.208C72.4499 36.5692 72.2914 35.81 72.2914 34.9533C72.2914 34.0967 72.4515 33.3294 72.7669 32.6873C73.0807 32.0468 73.5271 31.5412 74.0931 31.1885C74.6608 30.8341 75.3337 30.6553 76.0971 30.6553C76.8605 30.6553 77.5333 30.8341 78.101 31.1885C78.6687 31.5428 79.1151 32.0468 79.4272 32.6873C79.7426 33.331 79.9027 34.0934 79.9027 34.9533C79.9027 35.8133 79.7426 36.5692 79.4288 37.208C79.1151 37.8453 78.6687 38.3476 78.101 38.702C77.5333 39.0563 76.8605 39.2352 76.0971 39.2352ZM76.1019 31.8875C75.5795 31.8875 75.1396 32.0321 74.7935 32.315C74.4506 32.5962 74.195 32.9734 74.0301 33.4367C73.8683 33.8951 73.7858 34.4023 73.7858 34.9468C73.7858 35.4914 73.8683 36.0035 74.0301 36.4603C74.1934 36.9219 74.4506 37.2958 74.7935 37.5738C75.138 37.8534 75.5779 37.9965 76.1003 37.9965C76.6227 37.9965 77.0578 37.855 77.4007 37.5738C77.7403 37.2958 77.9975 36.9219 78.1608 36.4603C78.3242 36.0035 78.405 35.4947 78.405 34.9468C78.405 34.399 78.3226 33.8951 78.1608 33.4367C77.9959 32.9734 77.7403 32.5962 77.4007 32.315C77.0578 32.0305 76.6195 31.8875 76.1003 31.8875H76.1019Z" fill="white" style="fill:white;fill-opacity:1;"/>
<path d="M81.7675 39.0646V30.7643H83.1925V32.1054H83.3995L83.4157 32.0583C83.5612 31.621 83.8232 31.2715 84.192 31.0196C84.5624 30.7676 84.9894 30.6392 85.46 30.6392C85.5603 30.6392 85.6784 30.6424 85.8158 30.6505C85.9193 30.6554 86.0067 30.6619 86.0779 30.67V32.0908C86.0115 32.0778 85.9226 32.0632 85.811 32.0469C85.6412 32.0225 85.4713 32.0112 85.3031 32.0112C84.9101 32.0112 84.5559 32.0957 84.2502 32.2648C83.9429 32.4338 83.6955 32.6695 83.5175 32.9654C83.338 33.2629 83.2474 33.6059 83.2474 33.983V39.0679H81.7692L81.7675 39.0646Z" fill="white" style="fill:white;fill-opacity:1;"/>
<path d="M90.9801 39.2353C90.1924 39.2353 89.5066 39.0516 88.9422 38.6891C88.3761 38.3266 87.9362 37.8178 87.6337 37.1773C87.3296 36.5336 87.1744 35.7858 87.1744 34.9535C87.1744 34.1212 87.3329 33.3572 87.6434 32.7118C87.954 32.0697 88.3971 31.5609 88.96 31.1984C89.5228 30.8375 90.1972 30.6538 90.9623 30.6538C91.5801 30.6538 92.1381 30.7709 92.6201 31.0017C93.1004 31.2325 93.4951 31.5576 93.7927 31.9722C94.0741 32.3656 94.2504 32.8289 94.3151 33.3507H92.874C92.7786 32.9654 92.5764 32.6289 92.274 32.3477C91.9537 32.0502 91.5219 31.9006 90.9898 31.9006C90.5256 31.9006 90.1148 32.0258 89.767 32.2729C89.4209 32.52 89.1476 32.8727 88.9551 33.3247C88.7643 33.7733 88.6688 34.3081 88.6688 34.9161C88.6688 35.5241 88.7626 36.0833 88.9502 36.5368C89.1395 36.9936 89.4096 37.3545 89.7557 37.6048C90.1034 37.8584 90.5191 37.9869 90.9898 37.9869C91.3051 37.9869 91.5963 37.9267 91.8551 37.808C92.1154 37.6878 92.337 37.5138 92.5133 37.2911C92.6799 37.0814 92.8012 36.8278 92.874 36.5368H94.3151C94.2504 37.0375 94.0806 37.4927 93.8105 37.8893C93.5258 38.3055 93.1409 38.6387 92.6654 38.8777C92.1882 39.1166 91.6205 39.2386 90.9784 39.2386L90.9801 39.2353Z" fill="white" style="fill:white;fill-opacity:1;"/>
<path d="M99.7139 39.2352C98.9117 39.2352 98.213 39.058 97.6372 38.7101C97.0614 38.3622 96.6118 37.8632 96.2996 37.2275C95.9858 36.5903 95.8273 35.8312 95.8273 34.9696C95.8273 34.108 95.9858 33.3619 96.2996 32.7149C96.6118 32.0712 97.0549 31.5607 97.6161 31.1998C98.1774 30.839 98.8454 30.6553 99.6007 30.6553C100.06 30.6553 100.511 30.7333 100.941 30.8877C101.37 31.0405 101.76 31.286 102.101 31.6144C102.442 31.9427 102.714 32.3752 102.911 32.8986C103.109 33.4253 103.211 34.0739 103.211 34.8282V35.3402H97.3008V35.4118C97.3153 35.9352 97.4172 36.3904 97.6032 36.7659C97.8054 37.1723 98.0917 37.486 98.4556 37.699C98.8179 37.9119 99.2465 38.0192 99.7301 38.0192C100.044 38.0192 100.333 37.9721 100.592 37.881C100.853 37.7884 101.082 37.6469 101.273 37.4616C101.451 37.2893 101.59 37.0747 101.69 36.826L103.089 37.0812C102.966 37.4958 102.758 37.8648 102.468 38.1785C102.161 38.5118 101.771 38.7735 101.309 38.9572C100.844 39.1409 100.307 39.2352 99.7139 39.2352V39.2352ZM99.6104 31.8712C99.1446 31.8712 98.7305 31.9883 98.3828 32.2207C98.0367 32.4516 97.7666 32.7572 97.5806 33.1262C97.4172 33.4497 97.3234 33.8024 97.304 34.1731L97.3008 34.2478H101.765V34.1779C101.765 33.7358 101.674 33.3375 101.496 32.9945C101.318 32.6499 101.064 32.3735 100.743 32.1736C100.421 31.9736 100.039 31.8712 99.6104 31.8712V31.8712Z" fill="white" style="fill:white;fill-opacity:1;"/>
<defs>
<linearGradient id="paint0_linear_2_57" x1="38.5295" y1="19.6078" x2="33.7808" y2="-3.14795" gradientUnits="userSpaceOnUse">
<stop stop-color="#476FE7" style="stop-color:#476FE7;stop-color:color(display-p3 0.2784 0.4353 0.9059);stop-opacity:1;"/>
<stop offset="0.296988" stop-color="#3D5DE6" style="stop-color:#3D5DE6;stop-color:color(display-p3 0.2392 0.3647 0.9020);stop-opacity:1;"/>
<stop offset="0.522398" stop-color="#3550E7" style="stop-color:#3550E7;stop-color:color(display-p3 0.2078 0.3137 0.9059);stop-opacity:1;"/>
<stop offset="0.726413" stop-color="#2D47E8" style="stop-color:#2D47E8;stop-color:color(display-p3 0.1765 0.2784 0.9098);stop-opacity:1;"/>
<stop offset="1" stop-color="#253FEB" style="stop-color:#253FEB;stop-color:color(display-p3 0.1451 0.2471 0.9216);stop-opacity:1;"/>
</linearGradient>
<linearGradient id="paint1_linear_2_57" x1="45.0798" y1="39.673" x2="-1.25034" y2="25.4012" gradientUnits="userSpaceOnUse">
<stop stop-color="#73B1E2" style="stop-color:#73B1E2;stop-color:color(display-p3 0.4510 0.6941 0.8863);stop-opacity:1;"/>
<stop offset="0.162719" stop-color="#7FADD8" style="stop-color:#7FADD8;stop-color:color(display-p3 0.4980 0.6784 0.8471);stop-opacity:1;"/>
<stop offset="0.296988" stop-color="#8AA4CD" style="stop-color:#8AA4CD;stop-color:color(display-p3 0.5412 0.6431 0.8039);stop-opacity:1;"/>
<stop offset="0.412309" stop-color="#909EC7" style="stop-color:#909EC7;stop-color:color(display-p3 0.5647 0.6196 0.7804);stop-opacity:1;"/>
<stop offset="0.522398" stop-color="#9594C0" style="stop-color:#9594C0;stop-color:color(display-p3 0.5843 0.5804 0.7529);stop-opacity:1;"/>
<stop offset="0.615031" stop-color="#948DBE" style="stop-color:#948DBE;stop-color:color(display-p3 0.5804 0.5529 0.7451);stop-opacity:1;"/>
<stop offset="0.726413" stop-color="#9383BB" style="stop-color:#9383BB;stop-color:color(display-p3 0.5765 0.5137 0.7333);stop-opacity:1;"/>
<stop offset="0.854082" stop-color="#7D71C3" style="stop-color:#7D71C3;stop-color:color(display-p3 0.4902 0.4431 0.7647);stop-opacity:1;"/>
<stop offset="1" stop-color="#5359D8" style="stop-color:#5359D8;stop-color:color(display-p3 0.3255 0.3490 0.8471);stop-opacity:1;"/>
</linearGradient>
<radialGradient id="paint2_radial_2_57" cx="0" cy="0" r="1" gradientUnits="userSpaceOnUse" gradientTransform="translate(33.0022 46.4051) rotate(-161.81) scale(17.7969 22.6808)">
<stop stop-color="#BFDFEC" style="stop-color:#BFDFEC;stop-color:color(display-p3 0.7477 0.8760 0.9250);stop-opacity:1;"/>
<stop offset="1" stop-color="#BFDFEC" stop-opacity="0" style="stop-color:none;stop-opacity:0;"/>
</radialGradient>
<radialGradient id="paint3_radial_2_57" cx="0" cy="0" r="1" gradientUnits="userSpaceOnUse" gradientTransform="translate(4.22688 39.8692) rotate(-141.702) scale(26.1013 14.374)">
<stop stop-color="#A784AE" style="stop-color:#A784AE;stop-color:color(display-p3 0.6549 0.5176 0.6824);stop-opacity:1;"/>
<stop offset="1" stop-color="#A784AE" stop-opacity="0" style="stop-color:none;stop-opacity:0;"/>
</radialGradient>
<radialGradient id="paint4_radial_2_57" cx="0" cy="0" r="1" gradientUnits="userSpaceOnUse" gradientTransform="translate(15.9321 48.3659) rotate(-149.966) scale(21.2199 16.3805)">
<stop stop-color="#E8D1AE" stop-opacity="0.800699" style="stop-color:#E8D1AE;stop-color:color(display-p3 0.9098 0.8188 0.6824);stop-opacity:0.800699;"/>
<stop offset="1" stop-color="#E8D1AE" stop-opacity="0" style="stop-color:none;stop-opacity:0;"/>
</radialGradient>
<radialGradient id="paint5_radial_2_57" cx="0" cy="0" r="1" gradientUnits="userSpaceOnUse" gradientTransform="translate(44.0571 27.4509) rotate(113.494) scale(18.3513 11.7254)">
<stop stop-color="#70AEF2" stop-opacity="0.83" style="stop-color:#70AEF2;stop-color:color(display-p3 0.4392 0.6824 0.9490);stop-opacity:0.83;"/>
<stop offset="1" stop-color="#6896DF" stop-opacity="0" style="stop-color:none;stop-opacity:0;"/>
</radialGradient>
<linearGradient id="paint6_linear_2_57" x1="18.1974" y1="5.67967" x2="18.25" y2="35.176" gradientUnits="userSpaceOnUse">
<stop stop-color="#1F2158" style="stop-color:#1F2158;stop-color:color(display-p3 0.1216 0.1294 0.3451);stop-opacity:1;"/>
<stop offset="0.0854381" stop-color="#23276A" style="stop-color:#23276A;stop-color:color(display-p3 0.1373 0.1529 0.4157);stop-opacity:1;"/>
<stop offset="0.220029" stop-color="#2D3383" style="stop-color:#2D3383;stop-color:color(display-p3 0.1765 0.2000 0.5137);stop-opacity:1;"/>
<stop offset="0.310024" stop-color="#363E92" style="stop-color:#363E92;stop-color:color(display-p3 0.2118 0.2431 0.5725);stop-opacity:1;"/>
<stop offset="0.455085" stop-color="#494EA8" style="stop-color:#494EA8;stop-color:color(display-p3 0.2863 0.3059 0.6588);stop-opacity:1;"/>
<stop offset="0.580132" stop-color="#5C5EB1" style="stop-color:#5C5EB1;stop-color:color(display-p3 0.3608 0.3686 0.6941);stop-opacity:1;"/>
<stop offset="0.717917" stop-color="#6764AC" style="stop-color:#6764AC;stop-color:color(display-p3 0.4039 0.3922 0.6745);stop-opacity:1;"/>
<stop offset="0.865179" stop-color="#746DA7" style="stop-color:#746DA7;stop-color:color(display-p3 0.4549 0.4275 0.6549);stop-opacity:1;"/>
<stop offset="1" stop-color="#7B78A6" style="stop-color:#7B78A6;stop-color:color(display-p3 0.4824 0.4706 0.6510);stop-opacity:1;"/>
</linearGradient>
</defs>
</svg>
