<svg width="147" height="54" viewBox="0 0 147 54" fill="none" xmlns="http://www.w3.org/2000/svg">
<path d="M145.704 28.2293C145.116 27.1328 143.752 26.4909 138.376 26.4909C133.827 26.5408 129.284 26.8264 124.764 27.3467C127.603 22.398 130.946 17.7557 134.739 13.4935C136.611 11.3006 137.119 10.8192 137.119 9.82967C136.742 7.93658 135.875 6.1754 134.606 4.72165C133.952 3.70871 133.088 2.8479 132.073 2.19737C131.058 1.54684 129.915 1.12174 128.722 0.950806C127.492 0.950806 126.048 1.91357 123.373 6.67393C121.118 10.5412 119.082 14.5323 117.276 18.6283C115.537 22.5061 114.173 25.956 113.104 28.9781C109.065 29.6467 105.589 30.3687 102.593 31.0641C105.385 25.7448 108.768 20.7569 112.676 16.1946C115.35 12.9854 116.072 12.0226 116.072 10.8459C115.89 9.85863 115.5 8.9213 114.929 8.09602C114.357 7.27074 113.616 6.57635 112.756 6.05883C111.276 4.83378 109.493 4.03007 107.595 3.73214C106.659 3.73214 105.776 4.0798 102.754 8.81342C101.417 10.8994 100.08 13.3598 98.582 15.9539C97.8503 14.0659 96.8988 12.2706 95.7471 10.6052C92.3507 5.57744 90.3984 5.57744 89.8368 5.57744C84.9962 5.57744 80.1824 8.89365 76.2778 14.9644C73.9585 18.5579 72.3178 22.5463 71.4372 26.7316C71.1517 26.5708 70.8289 26.4878 70.5012 26.4909H68.7896C69.8861 23.4689 71.3302 19.9922 72.5604 17.2911C73.6602 15.1581 74.4526 12.8801 74.9139 10.525C74.5223 8.37433 73.315 6.45806 71.5442 5.17629C70.185 3.85821 68.4935 2.93388 66.6501 2.50193C65.0455 2.50193 63.9757 3.99957 63.2537 6.00534C62.9959 5.9777 62.7359 5.9777 62.4781 6.00534C61.4084 6.00534 60.3386 6.72742 57.1294 10.7657C54.7492 13.761 52.0749 17.5051 50.2563 20.0992C49.2401 21.5434 48.2505 23.0143 47.2878 24.4317C49.0261 20.9283 50.7912 17.9597 52.1551 15.6598C53.9737 12.6377 54.562 11.6215 54.562 10.6855C54.562 9.74944 53.9737 8.01111 51.1923 5.84488C49.6861 4.49753 47.8166 3.62324 45.8169 3.33098C44.8363 3.4393 43.8979 3.78917 43.0858 4.34926C42.2737 4.90934 41.6132 5.66214 41.1635 6.54021C40.7541 6.50775 40.3427 6.50775 39.9333 6.54021C38.917 6.54021 38.088 7.0216 34.9055 11.3808C33.2741 13.6005 31.1614 16.7295 28.6208 20.5806L29.3161 18.5481C30.2954 16.2329 31.0303 13.8218 31.5091 11.3541C31.5091 10.4448 31.0812 9.26806 27.7917 7.26229C26.3674 6.2774 24.7564 5.59478 23.0581 5.25652C21.6674 5.25652 21.0523 6.70067 20.7047 7.55647C20.357 8.41226 19.9558 9.58898 19.4745 11.1134C19.207 11.9959 18.9128 12.9854 18.6187 14.0552C17.228 13.0924 16.6664 12.6912 15.9443 12.6912C14.8211 12.6912 14.099 13.3598 11.6653 17.4516C10.0072 20.1259 8.10843 23.7898 6.798 26.277C5.16664 29.3257 3.50853 32.6152 2.1981 35.2361C0.00512616 39.7022 0.00512695 40.0499 0.00512695 40.5848C0.3241 42.4465 1.26728 44.1442 2.67948 45.3986C3.16997 45.9516 3.76526 46.4017 4.43089 46.7231C5.09652 47.0444 5.81926 47.2305 6.5573 47.2707C7.73402 47.2707 9.23166 46.6823 13.3234 39.836C13.1929 40.7939 13.1125 41.758 13.0827 42.7243C13.0827 43.794 13.6711 45.5591 16.3722 47.9125C17.7945 49.2743 19.5758 50.202 21.507 50.5869C22.9511 50.5869 23.6197 49.2497 23.9941 47.9125C24.4642 47.6448 24.81 47.2029 24.9569 46.6823C25.465 45.7195 28.4068 41.3336 31.4823 36.8407C30.9034 39.2621 30.4835 41.7189 30.2254 44.1952C30.5463 47.8323 34.8787 50.0787 37.874 50.0787C40.0937 50.0787 41.0833 48.7683 41.0833 47.4044C41.0887 44.9823 41.3125 42.5656 41.7519 40.1836L43.0088 39.9162C44.0785 41.601 44.7739 42.1359 45.6831 42.1359C46.5392 42.0125 47.3496 41.6726 48.0375 41.1484C48.7255 40.6243 49.2682 39.9332 49.6145 39.1406C49.7588 38.8639 49.9196 38.596 50.0958 38.3383C52.586 37.8146 55.1201 37.5281 57.6643 37.4825H58.5735C59.0552 39.2373 60.0422 40.8117 61.4116 42.01C62.781 43.2082 64.4725 43.9774 66.2757 44.2219C66.5664 44.244 66.8584 44.2058 67.1336 44.1096C67.4087 44.0134 67.661 43.8613 67.8745 43.6628C68.088 43.4644 68.2581 43.2239 68.3742 42.9565C68.4903 42.6892 68.5498 42.4007 68.5489 42.1092C68.5281 41.3463 68.4476 40.5863 68.3082 39.836C68.3082 39.4616 68.3082 39.0604 68.121 38.6058C69.8326 38.9802 71.2767 39.3546 72.4535 39.6488C73.1838 39.8646 73.9247 40.0431 74.6732 40.1836C75.2766 41.3976 76.1713 42.4432 77.2772 43.2272C78.3832 44.0112 79.6661 44.5091 81.0114 44.6765C82.0571 44.6715 83.1016 44.609 84.1404 44.4893C84.1172 45.0422 84.2272 45.5926 84.4613 46.094C84.6565 46.57 84.9849 46.9797 85.4071 47.2738C85.8293 47.5679 86.3273 47.7339 86.8415 47.7521C87.779 47.6735 88.6899 47.4002 89.5159 46.9497C90.031 47.8116 90.6217 48.6261 91.2809 49.3834C91.9637 50.2808 92.8198 51.032 93.7983 51.5925C94.7767 52.1529 95.8578 52.5112 96.9773 52.6461C97.3817 52.6728 97.7868 52.6071 98.162 52.4543C98.5373 52.3014 98.8729 52.0652 99.1436 51.7636C100.08 50.7206 99.9459 49.3032 99.7052 47.1637C99.4904 45.6296 99.3565 44.0852 99.304 42.5371C102.681 41.2948 106.176 40.3987 109.734 39.8627C109.306 41.8409 109.073 43.8563 109.039 45.88C109.039 48.9555 114.093 53.074 116.42 53.074H116.607C117.233 53.0866 117.843 52.8795 118.332 52.4885C118.82 52.0976 119.156 51.5477 119.281 50.9345C119.558 48.9235 119.647 46.8913 119.549 44.8638C119.557 42.9413 119.754 41.0244 120.137 39.1406C125.276 39.1966 130.406 39.6076 135.488 40.3708C136.647 40.5704 137.817 40.7043 138.991 40.772C139.398 40.7913 139.802 40.7086 140.168 40.5313C141.883 39.2327 143.29 37.5705 144.287 35.664C145.092 34.6241 145.641 33.4086 145.887 32.1166C146.133 30.8245 146.071 29.4925 145.704 28.2293ZM80.1824 31.9199C80.1026 29.7902 80.5936 27.6779 81.6046 25.8017C82.6155 23.9256 84.1097 22.3538 85.9322 21.2492C88.2045 19.8044 90.7731 18.8903 93.4472 18.5748C93.1876 18.9671 93.0361 19.4209 93.0079 19.8905C92.9797 20.36 93.0759 20.8287 93.2867 21.2492C93.4535 21.4914 93.6774 21.6889 93.9386 21.8242C94.1998 21.9594 94.4902 22.0283 94.7843 22.0247C95.1283 22.0213 95.4668 21.939 95.7739 21.784C95.239 22.934 94.6507 24.1642 94.089 25.4747C93.4965 24.9813 92.7473 24.7158 91.9763 24.7258C91.5751 24.7258 89.6763 24.7258 89.6763 27.7211C89.6763 28.5769 88.6333 30.3955 85.7183 32.4012C84.1976 33.5403 82.5564 34.5089 80.8242 35.2896C80.3059 34.2462 80.0839 33.0807 80.1824 31.9199Z" fill="black" style="fill:black;fill-opacity:1;"/>
</svg>
